<svg version="1.1" id="Layer_1" xmlns="http://www.w3.org/2000/svg" xmlns:xlink="http://www.w3.org/1999/xlink" x="0px" y="0px"
	 width="100%" viewBox="0 0 181 339" enable-background="new 0 0 181 339" xml:space="preserve">
<path fill="#161615" opacity="1.000000" stroke="none" 
	d="
M69.000000,340.000000 
	C46.000000,340.000000 23.500000,340.000000 1.000000,340.000000 
	C1.000000,227.000000 1.000000,114.000000 1.000000,1.000000 
	C61.333332,1.000000 121.666664,1.000000 182.000000,1.000000 
	C182.000000,114.000000 182.000000,227.000000 182.000000,340.000000 
	C144.500000,340.000000 107.000000,340.000000 69.000000,340.000000 
M151.629898,187.223602 
	C157.329269,173.022232 164.442322,159.210281 168.480225,144.551270 
	C184.862732,85.076920 134.043152,31.014585 73.692924,43.003101 
	C32.509243,51.184200 3.702326,91.947510 9.881227,133.539993 
	C12.613069,151.929062 20.304708,168.629715 28.857742,184.839767 
	C43.235340,212.088760 58.365242,238.940582 72.769844,266.175690 
	C79.216278,278.364136 84.673164,291.075958 90.530457,303.447479 
	C96.491005,291.407196 102.247406,279.064636 108.621460,267.049805 
	C122.669609,240.569504 137.029297,214.254486 151.629898,187.223602 
z"/>
<path fill="#F9DD40" opacity="1.000000" stroke="none" 
	d="
M151.445862,187.547806 
	C137.029297,214.254486 122.669609,240.569504 108.621460,267.049805 
	C102.247406,279.064636 96.491005,291.407196 90.530457,303.447479 
	C84.673164,291.075958 79.216278,278.364136 72.769844,266.175690 
	C58.365242,238.940582 43.235340,212.088760 28.857742,184.839767 
	C20.304708,168.629715 12.613069,151.929062 9.881227,133.539993 
	C3.702326,91.947510 32.509243,51.184200 73.692924,43.003101 
	C134.043152,31.014585 184.862732,85.076920 168.480225,144.551270 
	C164.442322,159.210281 157.329269,173.022232 151.445862,187.547806 
M118.725014,113.012299 
	C108.170822,115.519234 101.806259,122.246811 100.129967,132.806458 
	C98.471367,143.254700 100.342545,153.135788 109.699471,159.484589 
	C120.427032,166.763382 131.187317,165.805206 141.298477,156.710312 
	C141.576492,159.339111 141.779739,161.261032 141.996826,163.313766 
	C144.665344,163.313766 147.083389,163.313766 149.780518,163.313766 
	C149.780518,139.780228 149.780518,116.551178 149.780518,93.166763 
	C146.491379,93.166763 143.446793,93.166763 140.656921,93.166763 
	C140.656921,101.994797 140.656921,110.466362 140.656921,119.265785 
	C133.122833,113.046089 129.383911,111.952995 118.725014,113.012299 
M43.418297,131.512192 
	C46.748165,123.112198 53.175507,119.495018 61.959949,121.077354 
	C68.935448,122.333855 72.098167,127.034065 72.177132,136.467087 
	C72.241257,144.128433 72.295776,151.792465 72.154716,159.451630 
	C72.100471,162.396912 72.948303,163.857254 76.100754,163.527771 
	C77.674393,163.363281 79.279419,163.499130 81.230080,163.499130 
	C81.230080,152.915970 81.362144,143.103973 81.198593,133.296906 
	C80.963402,119.194191 72.384445,111.230408 58.336067,112.775009 
	C53.141712,113.346123 48.164421,115.891472 42.791351,117.632591 
	C42.791351,109.868019 42.791351,101.611237 42.791351,93.086456 
	C39.586452,93.086456 36.836708,93.086456 34.020046,93.086456 
	C34.020046,116.678207 34.020046,140.051971 34.020046,163.474274 
	C37.022461,163.474274 39.608330,163.474274 43.223759,163.474274 
	C43.223759,152.893723 43.223759,142.615707 43.418297,131.512192 
M131.448242,185.880905 
	C107.840965,212.153900 70.293182,211.201706 47.763687,183.853424 
	C46.610039,182.453033 44.540955,181.806763 42.898087,180.809372 
	C42.581345,181.379242 42.264603,181.949112 41.947861,182.518967 
	C54.041039,199.707550 70.467178,209.317139 91.901329,208.839859 
	C112.247124,208.386810 127.938553,199.034332 139.484909,181.988586 
	C134.910339,179.781433 133.790161,183.302750 131.448242,185.880905 
M88.723358,163.499908 
	C88.722923,173.140533 88.643997,182.782471 88.805664,192.420380 
	C88.830254,193.886597 89.970421,195.334122 90.594589,196.790283 
	C91.127899,195.277969 92.114655,193.768723 92.124908,192.252869 
	C92.236214,175.798080 92.202492,159.342224 92.179878,142.886703 
	C92.177917,141.456177 91.973900,140.025909 91.853333,138.460510 
	C88.722885,139.664780 88.722885,139.664780 88.723358,163.499908 
M88.651268,262.491699 
	C88.651260,275.778503 88.651260,275.778503 91.735016,276.087402 
	C91.735016,256.899292 91.735016,237.719299 91.735016,218.539291 
	C91.153503,218.400436 90.571991,218.261581 89.990479,218.122726 
	C89.544708,219.596954 88.723595,221.068222 88.711952,222.545868 
	C88.609673,235.528030 88.651611,248.511307 88.651268,262.491699 
M92.189758,97.499527 
	C92.188629,85.697151 92.235184,73.894249 92.107620,62.093246 
	C92.095749,60.995274 90.980286,59.909229 90.377243,58.817642 
	C89.828491,59.832554 88.807053,60.844830 88.801384,61.862774 
	C88.705002,79.150208 88.701256,96.438560 88.811539,113.725845 
	C88.818909,114.880669 89.901741,116.028633 90.484360,117.179787 
	C91.052826,117.035965 91.621292,116.892143 92.189758,116.748314 
	C92.189758,110.665276 92.189758,104.582237 92.189758,97.499527 
z"/>
<path fill="#1E1D17" opacity="1.000000" stroke="none" 
	d="
M119.124611,112.942490 
	C129.383911,111.952995 133.122833,113.046089 140.656921,119.265785 
	C140.656921,110.466362 140.656921,101.994797 140.656921,93.166763 
	C143.446793,93.166763 146.491379,93.166763 149.780518,93.166763 
	C149.780518,116.551178 149.780518,139.780228 149.780518,163.313766 
	C147.083389,163.313766 144.665344,163.313766 141.996826,163.313766 
	C141.779739,161.261032 141.576492,159.339111 141.298477,156.710312 
	C131.187317,165.805206 120.427032,166.763382 109.699471,159.484589 
	C100.342545,153.135788 98.471367,143.254700 100.129967,132.806458 
	C101.806259,122.246811 108.170822,115.519234 119.124611,112.942490 
M136.043213,151.564575 
	C141.186676,146.500092 142.099533,140.195404 140.834900,133.536880 
	C139.662476,127.363670 135.992584,122.964745 129.810776,121.152580 
	C123.749588,119.375786 118.193810,120.583786 113.612358,124.985634 
	C107.327698,131.023911 106.924347,143.460693 112.619560,150.266754 
	C118.256889,157.003632 127.331367,157.714050 136.043213,151.564575 
z"/>
<path fill="#201F17" opacity="1.000000" stroke="none" 
	d="
M43.321030,131.924957 
	C43.223759,142.615707 43.223759,152.893723 43.223759,163.474274 
	C39.608330,163.474274 37.022461,163.474274 34.020046,163.474274 
	C34.020046,140.051971 34.020046,116.678207 34.020046,93.086456 
	C36.836708,93.086456 39.586452,93.086456 42.791351,93.086456 
	C42.791351,101.611237 42.791351,109.868019 42.791351,117.632591 
	C48.164421,115.891472 53.141712,113.346123 58.336067,112.775009 
	C72.384445,111.230408 80.963402,119.194191 81.198593,133.296906 
	C81.362144,143.103973 81.230080,152.915970 81.230080,163.499130 
	C79.279419,163.499130 77.674393,163.363281 76.100754,163.527771 
	C72.948303,163.857254 72.100471,162.396912 72.154716,159.451630 
	C72.295776,151.792465 72.241257,144.128433 72.177132,136.467087 
	C72.098167,127.034065 68.935448,122.333855 61.959949,121.077354 
	C53.175507,119.495018 46.748165,123.112198 43.321030,131.924957 
z"/>
<path fill="#2A2819" opacity="1.000000" stroke="none" 
	d="
M131.678375,185.605362 
	C133.790161,183.302750 134.910339,179.781433 139.484909,181.988586 
	C127.938553,199.034332 112.247124,208.386810 91.901329,208.839859 
	C70.467178,209.317139 54.041039,199.707550 41.947861,182.518967 
	C42.264603,181.949112 42.581345,181.379242 42.898087,180.809372 
	C44.540955,181.806763 46.610039,182.453033 47.763687,183.853424 
	C70.293182,211.201706 107.840965,212.153900 131.678375,185.605362 
z"/>
<path fill="#1F1E17" opacity="1.000000" stroke="none" 
	d="
M88.723282,162.999908 
	C88.722885,139.664780 88.722885,139.664780 91.853333,138.460510 
	C91.973900,140.025909 92.177917,141.456177 92.179878,142.886703 
	C92.202492,159.342224 92.236214,175.798080 92.124908,192.252869 
	C92.114655,193.768723 91.127899,195.277969 90.594589,196.790283 
	C89.970421,195.334122 88.830254,193.886597 88.805664,192.420380 
	C88.643997,182.782471 88.722923,173.140533 88.723282,162.999908 
z"/>
<path fill="#1F1E17" opacity="1.000000" stroke="none" 
	d="
M88.651054,261.992981 
	C88.651611,248.511307 88.609673,235.528030 88.711952,222.545868 
	C88.723595,221.068222 89.544708,219.596954 89.990479,218.122726 
	C90.571991,218.261581 91.153503,218.400436 91.735016,218.539291 
	C91.735016,237.719299 91.735016,256.899292 91.735016,276.087402 
	C88.651260,275.778503 88.651260,275.778503 88.651054,261.992981 
z"/>
<path fill="#1D1C17" opacity="1.000000" stroke="none" 
	d="
M92.189758,97.999359 
	C92.189758,104.582237 92.189758,110.665276 92.189758,116.748314 
	C91.621292,116.892143 91.052826,117.035965 90.484360,117.179787 
	C89.901741,116.028633 88.818909,114.880669 88.811539,113.725845 
	C88.701256,96.438560 88.705002,79.150208 88.801384,61.862774 
	C88.807053,60.844830 89.828491,59.832554 90.377243,58.817642 
	C90.980286,59.909229 92.095749,60.995274 92.107620,62.093246 
	C92.235184,73.894249 92.188629,85.697151 92.189758,97.999359 
z"/>
<path fill="#F9DD40" opacity="1.000000" stroke="none" 
	d="
M135.771317,151.811249 
	C127.331367,157.714050 118.256889,157.003632 112.619560,150.266754 
	C106.924347,143.460693 107.327698,131.023911 113.612358,124.985634 
	C118.193810,120.583786 123.749588,119.375786 129.810776,121.152580 
	C135.992584,122.964745 139.662476,127.363670 140.834900,133.536880 
	C142.099533,140.195404 141.186676,146.500092 135.771317,151.811249 
z"/>
</svg>